<?xml version="1.0" encoding="UTF-8" standalone="no"?>
<!-- Created with Inkscape (http://www.inkscape.org/) -->

<svg
   xmlns:dc="http://purl.org/dc/elements/1.1/"
   xmlns:cc="http://creativecommons.org/ns#"
   xmlns:rdf="http://www.w3.org/1999/02/22-rdf-syntax-ns#"
   xmlns:svg="http://www.w3.org/2000/svg"
   xmlns="http://www.w3.org/2000/svg"
   xmlns:sodipodi="http://sodipodi.sourceforge.net/DTD/sodipodi-0.dtd"
   xmlns:inkscape="http://www.inkscape.org/namespaces/inkscape"
   width="744.09448819"
   height="1052.3622047"
   id="svg2"
   version="1.1"
   inkscape:version="0.48.2 r9819"
   sodipodi:docname="New document 1">
  <defs
     id="defs4" />
  <sodipodi:namedview
     id="base"
     pagecolor="#ffffff"
     bordercolor="#666666"
     borderopacity="1.0"
     inkscape:pageopacity="0.0"
     inkscape:pageshadow="2"
     inkscape:zoom="0.99499999"
     inkscape:cx="184.72078"
     inkscape:cy="694.42134"
     inkscape:document-units="px"
     inkscape:current-layer="layer1"
     showgrid="false"
     inkscape:window-width="1649"
     inkscape:window-height="984"
     inkscape:window-x="0"
     inkscape:window-y="0"
     inkscape:window-maximized="0" />
  <metadata
     id="metadata7">
    <rdf:RDF>
      <cc:Work
         rdf:about="">
        <dc:format>image/svg+xml</dc:format>
        <dc:type
           rdf:resource="http://purl.org/dc/dcmitype/StillImage" />
        <dc:title></dc:title>
      </cc:Work>
    </rdf:RDF>
  </metadata>
  <g
     inkscape:label="Layer 1"
     inkscape:groupmode="layer"
     id="layer1">
    <path
       style="fill:#00ffff;fill-opacity:1;stroke:#000000;stroke-width:1.00956713999999992;stroke-miterlimit:4;stroke-opacity:1"
       d="m 499.49523,752.36218 c 0,-110.17818 -89.31705,-199.49523 -199.49522,-199.49523 -110.17817,0 -199.49523,89.31705 -199.49523,199.49523 0,110.17817 89.31706,199.49522 199.49523,199.49522 110.17817,0 199.49522,-89.31705 199.49522,-199.49522 z"
       id="path2985"
       inkscape:connector-curvature="0" />
    <path
       style="fill:none;stroke:#000000;stroke-width:0.83678502px;stroke-linecap:butt;stroke-linejoin:miter;stroke-opacity:1"
       d="m 100.41839,751.94379 c 399.16343,0 399.16343,0 399.16343,0"
       id="path3760"
       inkscape:connector-curvature="0" />
    <path
       inkscape:connector-curvature="0"
       id="path3762"
       d="M 138.53511,869.25498 C 461.4651,634.6326 461.4651,634.6326 461.4651,634.6326"
       style="fill:none;stroke:#000000;stroke-width:0.83678502px;stroke-linecap:butt;stroke-linejoin:miter;stroke-opacity:1" />
    <path
       inkscape:connector-curvature="0"
       id="path3764"
       d="M 104.77973,793.43916 C 495.22048,710.44842 495.22048,710.44842 495.22048,710.44842"
       style="fill:none;stroke:#000000;stroke-width:0.83678502px;stroke-linecap:butt;stroke-linejoin:miter;stroke-opacity:1" />
    <path
       inkscape:connector-curvature="0"
       id="path3766"
       d="M 117.67314,833.12099 C 482.32707,670.76659 482.32707,670.76659 482.32707,670.76659"
       style="fill:none;stroke:#000000;stroke-width:0.83678502px;stroke-linecap:butt;stroke-linejoin:miter;stroke-opacity:1" />
    <path
       style="fill:none;stroke:#000000;stroke-width:0.83678502px;stroke-linecap:butt;stroke-linejoin:miter;stroke-opacity:1"
       d="M 166.45388,900.26191 C 433.54633,603.62567 433.54633,603.62567 433.54633,603.62567"
       id="path3768"
       inkscape:connector-curvature="0" />
    <path
       inkscape:connector-curvature="0"
       id="path3770"
       d="M 200.20926,924.78662 C 399.79095,579.10096 399.79095,579.10096 399.79095,579.10096"
       style="fill:none;stroke:#000000;stroke-width:0.83678502px;stroke-linecap:butt;stroke-linejoin:miter;stroke-opacity:1" />
    <path
       style="fill:none;stroke:#000000;stroke-width:0.83678502px;stroke-linecap:butt;stroke-linejoin:miter;stroke-opacity:1"
       d="M 238.32597,941.75727 C 361.67424,562.13031 361.67424,562.13031 361.67424,562.13031"
       id="path3772"
       inkscape:connector-curvature="0" />
    <path
       inkscape:connector-curvature="0"
       id="path3774"
       d="M 279.13814,950.43216 C 320.86207,553.45542 320.86207,553.45542 320.86207,553.45542"
       style="fill:none;stroke:#000000;stroke-width:0.83678502px;stroke-linecap:butt;stroke-linejoin:miter;stroke-opacity:1" />
    <path
       style="fill:none;stroke:#000000;stroke-width:0.83678502px;stroke-linecap:butt;stroke-linejoin:miter;stroke-opacity:1"
       d="M 320.86208,950.43216 C 279.13813,553.45542 279.13813,553.45542 279.13813,553.45542"
       id="path3776"
       inkscape:connector-curvature="0" />
    <path
       inkscape:connector-curvature="0"
       id="path3778"
       d="M 361.67425,941.75726 C 238.32596,562.13032 238.32596,562.13032 238.32596,562.13032"
       style="fill:none;stroke:#000000;stroke-width:0.83678502px;stroke-linecap:butt;stroke-linejoin:miter;stroke-opacity:1" />
    <path
       style="fill:none;stroke:#000000;stroke-width:0.83678502px;stroke-linecap:butt;stroke-linejoin:miter;stroke-opacity:1"
       d="M 399.79096,924.7866 C 200.20925,579.10098 200.20925,579.10098 200.20925,579.10098"
       id="path3780"
       inkscape:connector-curvature="0" />
    <path
       inkscape:connector-curvature="0"
       id="path3782"
       d="M 433.54633,900.26188 C 166.45388,603.6257 166.45388,603.6257 166.45388,603.6257"
       style="fill:none;stroke:#000000;stroke-width:0.83678502px;stroke-linecap:butt;stroke-linejoin:miter;stroke-opacity:1" />
    <path
       style="fill:none;stroke:#000000;stroke-width:0.83678502px;stroke-linecap:butt;stroke-linejoin:miter;stroke-opacity:1"
       d="M 461.46509,869.25495 C 138.53512,634.63263 138.53512,634.63263 138.53512,634.63263"
       id="path3784"
       inkscape:connector-curvature="0" />
    <path
       inkscape:connector-curvature="0"
       id="path3786"
       d="M 482.32705,833.12096 C 117.67316,670.76662 117.67316,670.76662 117.67316,670.76662"
       style="fill:none;stroke:#000000;stroke-width:0.83678502px;stroke-linecap:butt;stroke-linejoin:miter;stroke-opacity:1" />
    <path
       style="fill:none;stroke:#000000;stroke-width:0.83678502px;stroke-linecap:butt;stroke-linejoin:miter;stroke-opacity:1"
       d="M 495.22045,793.43914 C 104.77976,710.44844 104.77976,710.44844 104.77976,710.44844"
       id="path3788"
       inkscape:connector-curvature="0" />
    <path
       style="fill:#ffffff;fill-opacity:1;stroke:#000000;stroke-width:0.85813206;stroke-miterlimit:4;stroke-opacity:1"
       d="m 469.57094,752.36219 c 0,-93.65145 -75.91949,-169.57094 -169.57094,-169.57094 -93.65143,0 -169.57093,75.91949 -169.57093,169.57094 0,93.65143 75.9195,169.57093 169.57093,169.57093 93.65145,0 169.57094,-75.9195 169.57094,-169.57093 z"
       id="path3755"
       inkscape:connector-curvature="0" />
    <text
       xml:space="preserve"
       style="font-size:28px;font-style:normal;font-weight:normal;line-height:125%;letter-spacing:0px;word-spacing:0px;fill:#000000;fill-opacity:1;stroke:none;font-family:Sans"
       x="294.14288"
       y="575.21936"
       id="text3790"
       sodipodi:linespacing="125%"><tspan
         sodipodi:role="line"
         id="tspan3792"
         x="294.14288"
         y="575.21936">a</tspan></text>
    <text
       sodipodi:linespacing="125%"
       id="text3794"
       y="581.21936"
       x="334.14288"
       style="font-size:32px;font-style:normal;font-weight:normal;line-height:125%;letter-spacing:0px;word-spacing:0px;fill:#000000;fill-opacity:1;stroke:none;font-family:Sans"
       xml:space="preserve"><tspan
         y="581.21936"
         x="334.14288"
         id="tspan3796"
         sodipodi:role="line"
         style="font-size:24px">f</tspan></text>
    <text
       sodipodi:linespacing="125%"
       id="text3798"
       y="665.93365"
       x="132.71431"
       style="font-size:28px;font-style:normal;font-weight:normal;line-height:125%;letter-spacing:0px;word-spacing:0px;fill:#000000;fill-opacity:1;stroke:none;font-family:Sans"
       xml:space="preserve"><tspan
         y="665.93365"
         x="132.71431"
         id="tspan3800"
         sodipodi:role="line">z</tspan></text>
    <text
       xml:space="preserve"
       style="font-size:28px;font-style:normal;font-weight:normal;line-height:125%;letter-spacing:0px;word-spacing:0px;fill:#000000;fill-opacity:1;stroke:none;font-family:Sans"
       x="154.85716"
       y="636.50507"
       id="text3802"
       sodipodi:linespacing="125%"><tspan
         sodipodi:role="line"
         id="tspan3804"
         x="154.85716"
         y="636.50507">d</tspan></text>
    <text
       sodipodi:linespacing="125%"
       id="text3806"
       y="612.07648"
       x="187.00003"
       style="font-size:28px;font-style:normal;font-weight:normal;line-height:125%;letter-spacing:0px;word-spacing:0px;fill:#000000;fill-opacity:1;stroke:none;font-family:Sans"
       xml:space="preserve"><tspan
         y="612.07648"
         x="187.00003"
         id="tspan3808"
         sodipodi:role="line">f</tspan></text>
    <text
       xml:space="preserve"
       style="font-size:28px;font-style:normal;font-weight:normal;line-height:125%;letter-spacing:0px;word-spacing:0px;fill:#000000;fill-opacity:1;stroke:none;font-family:Sans"
       x="428.14288"
       y="639.21936"
       id="text3810"
       sodipodi:linespacing="125%"><tspan
         sodipodi:role="line"
         id="tspan3812"
         x="428.14288"
         y="639.21936">d</tspan></text>
    <text
       sodipodi:linespacing="125%"
       id="text3814"
       y="611.21936"
       x="402.14288"
       style="font-size:28px;font-style:normal;font-weight:normal;line-height:125%;letter-spacing:0px;word-spacing:0px;fill:#000000;fill-opacity:1;stroke:none;font-family:Sans"
       xml:space="preserve"><tspan
         y="611.21936"
         x="402.14288"
         id="tspan3816"
         sodipodi:role="line">s</tspan></text>
    <text
       xml:space="preserve"
       style="font-size:28px;font-style:normal;font-weight:normal;line-height:125%;letter-spacing:0px;word-spacing:0px;fill:#000000;fill-opacity:1;stroke:none;font-family:Sans"
       x="366.14288"
       y="591.21936"
       id="text3818"
       sodipodi:linespacing="125%"><tspan
         sodipodi:role="line"
         id="tspan3820"
         x="366.14288"
         y="591.21936">a</tspan></text>
    <text
       sodipodi:linespacing="125%"
       id="text3822"
       y="587.21936"
       x="218.14288"
       style="font-size:28px;font-style:normal;font-weight:normal;line-height:125%;letter-spacing:0px;word-spacing:0px;fill:#000000;fill-opacity:1;stroke:none;font-family:Sans"
       xml:space="preserve"><tspan
         y="587.21936"
         x="218.14288"
         id="tspan3824"
         sodipodi:role="line">q</tspan></text>
    <text
       xml:space="preserve"
       style="font-size:28px;font-style:normal;font-weight:normal;line-height:125%;letter-spacing:0px;word-spacing:0px;fill:#000000;fill-opacity:1;stroke:none;font-family:Sans"
       x="254.14288"
       y="579.21936"
       id="text3826"
       sodipodi:linespacing="125%"><tspan
         sodipodi:role="line"
         id="tspan3828"
         x="254.14288"
         y="579.21936">c</tspan></text>
    <text
       xml:space="preserve"
       style="font-size:28px;font-style:normal;font-weight:normal;line-height:125%;letter-spacing:0px;word-spacing:0px;fill:#000000;fill-opacity:1;stroke:none;font-family:Sans"
       x="122.71431"
       y="701.93365"
       id="text3830"
       sodipodi:linespacing="125%"><tspan
         sodipodi:role="line"
         id="tspan3832"
         x="122.71431"
         y="701.93365">j</tspan></text>
    <text
       sodipodi:linespacing="125%"
       id="text3834"
       y="815.93365"
       x="116.71431"
       style="font-size:28px;font-style:normal;font-weight:normal;line-height:125%;letter-spacing:0px;word-spacing:0px;fill:#000000;fill-opacity:1;stroke:none;font-family:Sans"
       xml:space="preserve"><tspan
         y="815.93365"
         x="116.71431"
         id="tspan3836"
         sodipodi:role="line">a</tspan></text>
    <text
       xml:space="preserve"
       style="font-size:28px;font-style:normal;font-weight:normal;line-height:125%;letter-spacing:0px;word-spacing:0px;fill:#000000;fill-opacity:1;stroke:none;font-family:Sans"
       x="108.71431"
       y="777.93365"
       id="text3838"
       sodipodi:linespacing="125%"><tspan
         sodipodi:role="line"
         id="tspan3840"
         x="108.71431"
         y="777.93365">y</tspan></text>
    <text
       sodipodi:linespacing="125%"
       id="text3842"
       y="741.93365"
       x="112.71431"
       style="font-size:28px;font-style:normal;font-weight:normal;line-height:125%;letter-spacing:0px;word-spacing:0px;fill:#000000;fill-opacity:1;stroke:none;font-family:Sans"
       xml:space="preserve"><tspan
         y="741.93365"
         x="112.71431"
         id="tspan3844"
         sodipodi:role="line">l</tspan></text>
    <text
       sodipodi:linespacing="125%"
       id="text3846"
       y="941.21936"
       x="254.14288"
       style="font-size:28px;font-style:normal;font-weight:normal;line-height:125%;letter-spacing:0px;word-spacing:0px;fill:#000000;fill-opacity:1;stroke:none;font-family:Sans"
       xml:space="preserve"><tspan
         y="941.21936"
         x="254.14288"
         id="tspan3848"
         sodipodi:role="line">x</tspan></text>
    <text
       xml:space="preserve"
       style="font-size:28px;font-style:normal;font-weight:normal;line-height:125%;letter-spacing:0px;word-spacing:0px;fill:#000000;fill-opacity:1;stroke:none;font-family:Sans"
       x="214.14288"
       y="929.21936"
       id="text3850"
       sodipodi:linespacing="125%"><tspan
         sodipodi:role="line"
         id="tspan3852"
         x="214.14288"
         y="929.21936">w</tspan></text>
    <text
       xml:space="preserve"
       style="font-size:28px;font-style:normal;font-weight:normal;line-height:125%;letter-spacing:0px;word-spacing:0px;fill:#000000;fill-opacity:1;stroke:none;font-family:Sans"
       x="185.00003"
       y="910.07648"
       id="text3858"
       sodipodi:linespacing="125%"><tspan
         sodipodi:role="line"
         id="tspan3860"
         x="185.00003"
         y="910.07648">z</tspan></text>
    <text
       sodipodi:linespacing="125%"
       id="text3862"
       y="882.50507"
       x="148.85716"
       style="font-size:28px;font-style:normal;font-weight:normal;line-height:125%;letter-spacing:0px;word-spacing:0px;fill:#000000;fill-opacity:1;stroke:none;font-family:Sans"
       xml:space="preserve"><tspan
         y="882.50507"
         x="148.85716"
         id="tspan3864"
         sodipodi:role="line">m</tspan></text>
    <text
       xml:space="preserve"
       style="font-size:28px;font-style:normal;font-weight:normal;line-height:125%;letter-spacing:0px;word-spacing:0px;fill:#000000;fill-opacity:1;stroke:none;font-family:Sans"
       x="132.71431"
       y="851.93365"
       id="text3866"
       sodipodi:linespacing="125%"><tspan
         sodipodi:role="line"
         id="tspan3868"
         x="132.71431"
         y="851.93365">n</tspan></text>
    <text
       xml:space="preserve"
       style="font-size:28px;font-style:normal;font-weight:normal;line-height:125%;letter-spacing:0px;word-spacing:0px;fill:#000000;fill-opacity:1;stroke:none;font-family:Sans"
       x="450.71429"
       y="667.93365"
       id="text3870"
       sodipodi:linespacing="125%"><tspan
         sodipodi:role="line"
         id="tspan3872"
         x="450.71429"
         y="667.93365">h</tspan></text>
    <text
       sodipodi:linespacing="125%"
       id="text3882"
       y="701.93365"
       x="466.71429"
       style="font-size:28px;font-style:normal;font-weight:normal;line-height:125%;letter-spacing:0px;word-spacing:0px;fill:#000000;fill-opacity:1;stroke:none;font-family:Sans"
       xml:space="preserve"><tspan
         y="701.93365"
         x="466.71429"
         id="tspan3884"
         sodipodi:role="line">g</tspan></text>
    <text
       xml:space="preserve"
       style="font-size:28px;font-style:normal;font-weight:normal;line-height:125%;letter-spacing:0px;word-spacing:0px;fill:#000000;fill-opacity:1;stroke:none;font-family:Sans"
       x="468.71429"
       y="815.93365"
       id="text3886"
       sodipodi:linespacing="125%"><tspan
         sodipodi:role="line"
         id="tspan3888"
         x="468.71429"
         y="815.93365">c</tspan></text>
    <text
       sodipodi:linespacing="125%"
       id="text3890"
       y="777.93365"
       x="474.71429"
       style="font-size:28px;font-style:normal;font-weight:normal;line-height:125%;letter-spacing:0px;word-spacing:0px;fill:#000000;fill-opacity:1;stroke:none;font-family:Sans"
       xml:space="preserve"><tspan
         y="777.93365"
         x="474.71429"
         id="tspan3892"
         sodipodi:role="line">n</tspan></text>
    <text
       xml:space="preserve"
       style="font-size:28px;font-style:normal;font-weight:normal;line-height:125%;letter-spacing:0px;word-spacing:0px;fill:#000000;fill-opacity:1;stroke:none;font-family:Sans"
       x="474.71429"
       y="739.93365"
       id="text3894"
       sodipodi:linespacing="125%"><tspan
         sodipodi:role="line"
         id="tspan3896"
         x="474.71429"
         y="739.93365">p</tspan></text>
    <text
       sodipodi:linespacing="125%"
       id="text3898"
       y="912.07648"
       x="405"
       style="font-size:28px;font-style:normal;font-weight:normal;line-height:125%;letter-spacing:0px;word-spacing:0px;fill:#000000;fill-opacity:1;stroke:none;font-family:Sans"
       xml:space="preserve"><tspan
         y="912.07648"
         x="405"
         id="tspan3900"
         sodipodi:role="line">l</tspan></text>
    <text
       xml:space="preserve"
       style="font-size:28px;font-style:normal;font-weight:normal;line-height:125%;letter-spacing:0px;word-spacing:0px;fill:#000000;fill-opacity:1;stroke:none;font-family:Sans"
       x="428.85718"
       y="882.50507"
       id="text3902"
       sodipodi:linespacing="125%"><tspan
         sodipodi:role="line"
         id="tspan3904"
         x="428.85718"
         y="882.50507">u</tspan></text>
    <text
       sodipodi:linespacing="125%"
       id="text3906"
       y="851.93365"
       x="452.71429"
       style="font-size:28px;font-style:normal;font-weight:normal;line-height:125%;letter-spacing:0px;word-spacing:0px;fill:#000000;fill-opacity:1;stroke:none;font-family:Sans"
       xml:space="preserve"><tspan
         y="851.93365"
         x="452.71429"
         id="tspan3908"
         sodipodi:role="line">b</tspan></text>
    <text
       xml:space="preserve"
       style="font-size:28px;font-style:normal;font-weight:normal;line-height:125%;letter-spacing:0px;word-spacing:0px;fill:#000000;fill-opacity:1;stroke:none;font-family:Sans"
       x="328.14288"
       y="941.21936"
       id="text3922"
       sodipodi:linespacing="125%"><tspan
         sodipodi:role="line"
         id="tspan3924"
         x="328.14288"
         y="941.21936">w</tspan></text>
    <text
       sodipodi:linespacing="125%"
       id="text3926"
       y="927.21936"
       x="368.14288"
       style="font-size:28px;font-style:normal;font-weight:normal;line-height:125%;letter-spacing:0px;word-spacing:0px;fill:#000000;fill-opacity:1;stroke:none;font-family:Sans"
       xml:space="preserve"><tspan
         y="927.21936"
         x="368.14288"
         id="tspan3928"
         sodipodi:role="line">o</tspan></text>
    <text
       xml:space="preserve"
       style="font-size:28px;font-style:normal;font-weight:normal;line-height:125%;letter-spacing:0px;word-spacing:0px;fill:#000000;fill-opacity:1;stroke:none;font-family:Sans"
       x="294.14288"
       y="947.21936"
       id="text3930"
       sodipodi:linespacing="125%"><tspan
         sodipodi:role="line"
         id="tspan3932"
         x="294.14288"
         y="947.21936">k</tspan></text>
    <path
       sodipodi:type="arc"
       style="fill:#ffffff;fill-opacity:1;stroke:#000000;stroke-width:0.89999998;stroke-miterlimit:4;stroke-opacity:1;stroke-dasharray:none"
       id="path3934"
       sodipodi:cx="385"
       sodipodi:cy="269.14789"
       sodipodi:rx="151.42857"
       sodipodi:ry="142.5"
       d="m 536.42857,269.14789 a 151.42857,142.5 0 1 1 -302.85714,0 151.42857,142.5 0 1 1 302.85714,0 z"
       transform="matrix(1.316721,0,0,1.3992224,-206.9376,-124.23557)" />
    <path
       style="fill:none;stroke:#000000;stroke-width:0.94476581px;stroke-linecap:butt;stroke-linejoin:miter;stroke-opacity:1"
       d="m 100.47238,251.8898 c 399.05523,0 399.05523,0 399.05523,-0.7659"
       id="path3940"
       inkscape:connector-curvature="0" />
    <path
       inkscape:connector-curvature="0"
       id="path3942"
       d="M 103.57015,286.53159 C 496.56284,217.23638 496.56284,217.23638 496.42984,216.48211"
       style="fill:none;stroke:#000000;stroke-width:0.94476581px;stroke-linecap:butt;stroke-linejoin:miter;stroke-opacity:1" />
    <path
       style="fill:none;stroke:#000000;stroke-width:0.94476581px;stroke-linecap:butt;stroke-linejoin:miter;stroke-opacity:1"
       d="M 112.63638,320.10958 C 487.62564,183.62466 487.62564,183.62466 487.36368,182.90494"
       id="path3944"
       inkscape:connector-curvature="0" />
    <path
       inkscape:connector-curvature="0"
       id="path3946"
       d="M 127.39562,351.60387 C 472.9876,152.07626 472.9876,152.07626 472.60464,151.41296"
       style="fill:none;stroke:#000000;stroke-width:0.94476581px;stroke-linecap:butt;stroke-linejoin:miter;stroke-opacity:1" />
    <path
       style="fill:none;stroke:#000000;stroke-width:0.94476581px;stroke-linecap:butt;stroke-linejoin:miter;stroke-opacity:1"
       d="M 147.39945,380.05776 C 453.0935,123.55001 453.0935,123.55001 452.60118,122.96328"
       id="path3948"
       inkscape:connector-curvature="0" />
    <path
       inkscape:connector-curvature="0"
       id="path3950"
       d="M 172.04008,404.60694 C 428.54784,98.9129 428.54784,98.9129 427.96112,98.420574"
       style="fill:none;stroke:#000000;stroke-width:0.94476581px;stroke-linecap:butt;stroke-linejoin:miter;stroke-opacity:1" />
    <path
       style="fill:none;stroke:#000000;stroke-width:0.94476581px;stroke-linecap:butt;stroke-linejoin:miter;stroke-opacity:1"
       d="M 200.56884,424.50577 C 400.09646,78.9138 400.09646,78.9138 399.43316,78.530836"
       id="path3952"
       inkscape:connector-curvature="0" />
    <path
       inkscape:connector-curvature="0"
       id="path3954"
       d="M 232.11893,439.15002 C 368.60386,64.160764 368.60386,64.160764 367.88414,63.898799"
       style="fill:none;stroke:#000000;stroke-width:0.94476581px;stroke-linecap:butt;stroke-linejoin:miter;stroke-opacity:1" />
    <path
       style="fill:none;stroke:#000000;stroke-width:0.94476581px;stroke-linecap:butt;stroke-linejoin:miter;stroke-opacity:1"
       d="M 265.73178,448.09543 C 335.027,55.102745 335.027,55.102745 334.27272,54.969738"
       id="path3956"
       inkscape:connector-curvature="0" />
    <path
       inkscape:connector-curvature="0"
       id="path3958"
       d="m 300.38624,451.07199 c 0,-399.055229 0,-399.055229 -0.76591,-399.055236"
       style="fill:none;stroke:#000000;stroke-width:0.94476581px;stroke-linecap:butt;stroke-linejoin:miter;stroke-opacity:1" />
    <path
       style="fill:none;stroke:#000000;stroke-width:0.94476581px;stroke-linecap:butt;stroke-linejoin:miter;stroke-opacity:1"
       d="M 335.02803,447.97422 C 265.73282,54.981534 265.73282,54.981534 264.97854,55.114526"
       id="path3960"
       inkscape:connector-curvature="0" />
    <path
       inkscape:connector-curvature="0"
       id="path3962"
       d="M 368.60602,438.90799 C 232.1211,63.918733 232.1211,63.918733 231.40137,64.180684"
       style="fill:none;stroke:#000000;stroke-width:0.94476581px;stroke-linecap:butt;stroke-linejoin:miter;stroke-opacity:1" />
    <path
       style="fill:none;stroke:#000000;stroke-width:0.94476581px;stroke-linecap:butt;stroke-linejoin:miter;stroke-opacity:1"
       d="M 400.10031,424.14875 C 200.5727,78.556775 200.5727,78.556775 199.90939,78.939726"
       id="path3964"
       inkscape:connector-curvature="0" />
    <path
       inkscape:connector-curvature="0"
       id="path3966"
       d="M 428.5542,404.14492 C 172.04645,98.450871 172.04645,98.450871 171.45971,98.943186"
       style="fill:none;stroke:#000000;stroke-width:0.94476581px;stroke-linecap:butt;stroke-linejoin:miter;stroke-opacity:1" />
    <path
       style="fill:none;stroke:#000000;stroke-width:0.94476581px;stroke-linecap:butt;stroke-linejoin:miter;stroke-opacity:1"
       d="M 453.10338,379.50429 C 147.40934,122.99653 147.40934,122.99653 146.917,123.58325"
       id="path3968"
       inkscape:connector-curvature="0" />
    <path
       inkscape:connector-curvature="0"
       id="path3970"
       d="M 473.00221,350.97553 C 127.41024,151.44791 127.41024,151.44791 127.02726,152.11121"
       style="fill:none;stroke:#000000;stroke-width:0.94476581px;stroke-linecap:butt;stroke-linejoin:miter;stroke-opacity:1" />
    <path
       style="fill:none;stroke:#000000;stroke-width:0.94476581px;stroke-linecap:butt;stroke-linejoin:miter;stroke-opacity:1"
       d="M 487.64646,319.42544 C 112.6572,182.94051 112.6572,182.94051 112.39522,183.66023"
       id="path3972"
       inkscape:connector-curvature="0" />
    <path
       inkscape:connector-curvature="0"
       id="path3974"
       d="M 496.59187,285.81259 C 103.59918,216.51737 103.59918,216.51737 103.46616,217.27165"
       style="fill:none;stroke:#000000;stroke-width:0.94476581px;stroke-linecap:butt;stroke-linejoin:miter;stroke-opacity:1" />
    <path
       transform="matrix(1.1192129,0,0,1.1893391,-130.89697,-67.745931)"
       d="m 536.42857,269.14789 a 151.42857,142.5 0 1 1 -302.85714,0 151.42857,142.5 0 1 1 302.85714,0 z"
       sodipodi:ry="142.5"
       sodipodi:rx="151.42857"
       sodipodi:cy="269.14789"
       sodipodi:cx="385"
       id="path3936"
       style="fill:#ffffff;fill-opacity:1;stroke:#000000;stroke-width:0.89999998;stroke-miterlimit:4;stroke-opacity:1;stroke-dasharray:none"
       sodipodi:type="arc" />
    <g
       id="g4096">
      <text
         xml:space="preserve"
         style="font-size:28px;font-style:normal;font-weight:normal;line-height:125%;letter-spacing:0px;word-spacing:0px;fill:#000000;fill-opacity:1;stroke:none;font-family:Sans"
         x="308.14288"
         y="77.21936"
         id="text3976"
         sodipodi:linespacing="125%"><tspan
           sodipodi:role="line"
           id="tspan3978"
           x="308.14288"
           y="77.21936">a</tspan></text>
      <text
         sodipodi:linespacing="125%"
         id="text3980"
         y="83.21936"
         x="344.14288"
         style="font-size:32px;font-style:normal;font-weight:normal;line-height:125%;letter-spacing:0px;word-spacing:0px;fill:#000000;fill-opacity:1;stroke:none;font-family:Sans"
         xml:space="preserve"><tspan
           y="83.21936"
           x="344.14288"
           id="tspan3982"
           sodipodi:role="line"
           style="font-size:24px">f</tspan></text>
      <text
         sodipodi:linespacing="125%"
         id="text3984"
         y="128.26868"
         x="163.85138"
         style="font-size:28px;font-style:normal;font-weight:normal;line-height:125%;letter-spacing:0px;word-spacing:0px;fill:#000000;fill-opacity:1;stroke:none;font-family:Sans"
         xml:space="preserve"><tspan
           y="128.26868"
           x="163.85138"
           id="tspan3986"
           sodipodi:role="line">z</tspan></text>
      <text
         xml:space="preserve"
         style="font-size:28px;font-style:normal;font-weight:normal;line-height:125%;letter-spacing:0px;word-spacing:0px;fill:#000000;fill-opacity:1;stroke:none;font-family:Sans"
         x="186.70488"
         y="109.49998"
         id="text3988"
         sodipodi:linespacing="125%"><tspan
           sodipodi:role="line"
           id="tspan3990"
           x="186.70488"
           y="109.49998">d</tspan></text>
      <text
         sodipodi:linespacing="125%"
         id="text3992"
         y="95.599312"
         x="218.26907"
         style="font-size:28px;font-style:normal;font-weight:normal;line-height:125%;letter-spacing:0px;word-spacing:0px;fill:#000000;fill-opacity:1;stroke:none;font-family:Sans"
         xml:space="preserve"><tspan
           y="95.599312"
           x="218.26907"
           id="tspan3994"
           sodipodi:role="line">f</tspan></text>
      <text
         xml:space="preserve"
         style="font-size:28px;font-style:normal;font-weight:normal;line-height:125%;letter-spacing:0px;word-spacing:0px;fill:#000000;fill-opacity:1;stroke:none;font-family:Sans"
         x="420.14288"
         y="131.21936"
         id="text3996"
         sodipodi:linespacing="125%"><tspan
           sodipodi:role="line"
           id="tspan3998"
           x="420.14288"
           y="131.21936">d</tspan></text>
      <text
         sodipodi:linespacing="125%"
         id="text4000"
         y="107.21936"
         x="398.14288"
         style="font-size:28px;font-style:normal;font-weight:normal;line-height:125%;letter-spacing:0px;word-spacing:0px;fill:#000000;fill-opacity:1;stroke:none;font-family:Sans"
         xml:space="preserve"><tspan
           y="107.21936"
           x="398.14288"
           id="tspan4002"
           sodipodi:role="line">s</tspan></text>
      <text
         xml:space="preserve"
         style="font-size:28px;font-style:normal;font-weight:normal;line-height:125%;letter-spacing:0px;word-spacing:0px;fill:#000000;fill-opacity:1;stroke:none;font-family:Sans"
         x="370.14288"
         y="93.21936"
         id="text4004"
         sodipodi:linespacing="125%"><tspan
           sodipodi:role="line"
           id="tspan4006"
           x="370.14288"
           y="93.21936">a</tspan></text>
      <text
         sodipodi:linespacing="125%"
         id="text4008"
         y="78.691437"
         x="243.72664"
         style="font-size:28px;font-style:normal;font-weight:normal;line-height:125%;letter-spacing:0px;word-spacing:0px;fill:#000000;fill-opacity:1;stroke:none;font-family:Sans"
         xml:space="preserve"><tspan
           y="78.691437"
           x="243.72664"
           id="tspan4010"
           sodipodi:role="line">q</tspan></text>
      <text
         xml:space="preserve"
         style="font-size:28px;font-style:normal;font-weight:normal;line-height:125%;letter-spacing:0px;word-spacing:0px;fill:#000000;fill-opacity:1;stroke:none;font-family:Sans"
         x="276.17334"
         y="77.087379"
         id="text4012"
         sodipodi:linespacing="125%"><tspan
           sodipodi:role="line"
           id="tspan4014"
           x="276.17334"
           y="77.087379">c</tspan></text>
      <text
         xml:space="preserve"
         style="font-size:28px;font-style:normal;font-weight:normal;line-height:125%;letter-spacing:0px;word-spacing:0px;fill:#000000;fill-opacity:1;stroke:none;font-family:Sans"
         x="146.87675"
         y="153.60876"
         id="text4016"
         sodipodi:linespacing="125%"><tspan
           sodipodi:role="line"
           id="tspan4018"
           x="146.87675"
           y="153.60876">j</tspan></text>
      <text
         sodipodi:linespacing="125%"
         id="text4020"
         y="410.31946"
         x="186.22702"
         style="font-size:28px;font-style:normal;font-weight:normal;line-height:125%;letter-spacing:0px;word-spacing:0px;fill:#000000;fill-opacity:1;stroke:none;font-family:Sans"
         xml:space="preserve"><tspan
           y="410.31946"
           x="186.22702"
           id="tspan4022"
           sodipodi:role="line">a</tspan></text>
      <text
         xml:space="preserve"
         style="font-size:28px;font-style:normal;font-weight:normal;line-height:125%;letter-spacing:0px;word-spacing:0px;fill:#000000;fill-opacity:1;stroke:none;font-family:Sans"
         x="162.01381"
         y="387.37531"
         id="text4024"
         sodipodi:linespacing="125%"><tspan
           sodipodi:role="line"
           id="tspan4026"
           x="162.01381"
           y="387.37531">y</tspan></text>
      <text
         sodipodi:linespacing="125%"
         id="text4028"
         y="182.2382"
         x="129.05949"
         style="font-size:28px;font-style:normal;font-weight:normal;line-height:125%;letter-spacing:0px;word-spacing:0px;fill:#000000;fill-opacity:1;stroke:none;font-family:Sans"
         xml:space="preserve"><tspan
           y="182.2382"
           x="129.05949"
           id="tspan4030"
           sodipodi:role="line">l</tspan></text>
      <text
         sodipodi:linespacing="125%"
         id="text4032"
         y="436.95541"
         x="339.42209"
         style="font-size:28px;font-style:normal;font-weight:normal;line-height:125%;letter-spacing:0px;word-spacing:0px;fill:#000000;fill-opacity:1;stroke:none;font-family:Sans"
         xml:space="preserve"><tspan
           y="436.95541"
           x="339.42209"
           id="tspan4034"
           sodipodi:role="line">x</tspan></text>
      <text
         xml:space="preserve"
         style="font-size:28px;font-style:normal;font-weight:normal;line-height:125%;letter-spacing:0px;word-spacing:0px;fill:#000000;fill-opacity:1;stroke:none;font-family:Sans"
         x="304.39673"
         y="442.72189"
         id="text4036"
         sodipodi:linespacing="125%"><tspan
           sodipodi:role="line"
           id="tspan4038"
           x="304.39673"
           y="442.72189">w</tspan></text>
      <text
         xml:space="preserve"
         style="font-size:28px;font-style:normal;font-weight:normal;line-height:125%;letter-spacing:0px;word-spacing:0px;fill:#000000;fill-opacity:1;stroke:none;font-family:Sans"
         x="278.0965"
         y="442.76685"
         id="text4040"
         sodipodi:linespacing="125%"><tspan
           sodipodi:role="line"
           id="tspan4042"
           x="278.0965"
           y="442.76685">z</tspan></text>
      <text
         sodipodi:linespacing="125%"
         id="text4044"
         y="438.64722"
         x="239.11099"
         style="font-size:28px;font-style:normal;font-weight:normal;line-height:125%;letter-spacing:0px;word-spacing:0px;fill:#000000;fill-opacity:1;stroke:none;font-family:Sans"
         xml:space="preserve"><tspan
           y="438.64722"
           x="239.11099"
           id="tspan4046"
           sodipodi:role="line">m</tspan></text>
      <text
         xml:space="preserve"
         style="font-size:28px;font-style:normal;font-weight:normal;line-height:125%;letter-spacing:0px;word-spacing:0px;fill:#000000;fill-opacity:1;stroke:none;font-family:Sans"
         x="213.72955"
         y="426.55298"
         id="text4048"
         sodipodi:linespacing="125%"><tspan
           sodipodi:role="line"
           id="tspan4050"
           x="213.72955"
           y="426.55298">n</tspan></text>
      <text
         xml:space="preserve"
         style="font-size:28px;font-style:normal;font-weight:normal;line-height:125%;letter-spacing:0px;word-spacing:0px;fill:#000000;fill-opacity:1;stroke:none;font-family:Sans"
         x="442.71429"
         y="155.93365"
         id="text4052"
         sodipodi:linespacing="125%"><tspan
           sodipodi:role="line"
           id="tspan4054"
           x="442.71429"
           y="155.93365">h</tspan></text>
      <text
         sodipodi:linespacing="125%"
         id="text4056"
         y="179.93365"
         x="458.71429"
         style="font-size:28px;font-style:normal;font-weight:normal;line-height:125%;letter-spacing:0px;word-spacing:0px;fill:#000000;fill-opacity:1;stroke:none;font-family:Sans"
         xml:space="preserve"><tspan
           y="179.93365"
           x="458.71429"
           id="tspan4058"
           sodipodi:role="line">g</tspan></text>
      <text
         xml:space="preserve"
         style="font-size:28px;font-style:normal;font-weight:normal;line-height:125%;letter-spacing:0px;word-spacing:0px;fill:#000000;fill-opacity:1;stroke:none;font-family:Sans"
         x="474.71429"
         y="275.93365"
         id="text4060"
         sodipodi:linespacing="125%"><tspan
           sodipodi:role="line"
           id="tspan4062"
           x="474.71429"
           y="275.93365">c</tspan></text>
      <text
         sodipodi:linespacing="125%"
         id="text4064"
         y="243.93365"
         x="474.71429"
         style="font-size:28px;font-style:normal;font-weight:normal;line-height:125%;letter-spacing:0px;word-spacing:0px;fill:#000000;fill-opacity:1;stroke:none;font-family:Sans"
         xml:space="preserve"><tspan
           y="243.93365"
           x="474.71429"
           id="tspan4066"
           sodipodi:role="line">n</tspan></text>
      <text
         xml:space="preserve"
         style="font-size:28px;font-style:normal;font-weight:normal;line-height:125%;letter-spacing:0px;word-spacing:0px;fill:#000000;fill-opacity:1;stroke:none;font-family:Sans"
         x="470.71429"
         y="209.93365"
         id="text4068"
         sodipodi:linespacing="125%"><tspan
           sodipodi:role="line"
           id="tspan4070"
           x="470.71429"
           y="209.93365">p</tspan></text>
      <text
         sodipodi:linespacing="125%"
         id="text4072"
         y="368.01556"
         x="447.63962"
         style="font-size:28px;font-style:normal;font-weight:normal;line-height:125%;letter-spacing:0px;word-spacing:0px;fill:#000000;fill-opacity:1;stroke:none;font-family:Sans"
         xml:space="preserve"><tspan
           y="368.01556"
           x="447.63962"
           id="tspan4074"
           sodipodi:role="line">l</tspan></text>
      <text
         xml:space="preserve"
         style="font-size:28px;font-style:normal;font-weight:normal;line-height:125%;letter-spacing:0px;word-spacing:0px;fill:#000000;fill-opacity:1;stroke:none;font-family:Sans"
         x="459.99423"
         y="337.02283"
         id="text4076"
         sodipodi:linespacing="125%"><tspan
           sodipodi:role="line"
           id="tspan4078"
           x="459.99423"
           y="337.02283">u</tspan></text>
      <text
         sodipodi:linespacing="125%"
         id="text4080"
         y="307.93365"
         x="468.71429"
         style="font-size:28px;font-style:normal;font-weight:normal;line-height:125%;letter-spacing:0px;word-spacing:0px;fill:#000000;fill-opacity:1;stroke:none;font-family:Sans"
         xml:space="preserve"><tspan
           y="307.93365"
           x="468.71429"
           id="tspan4082"
           sodipodi:role="line">b</tspan></text>
      <text
         xml:space="preserve"
         style="font-size:28px;font-style:normal;font-weight:normal;line-height:125%;letter-spacing:0px;word-spacing:0px;fill:#000000;fill-opacity:1;stroke:none;font-family:Sans"
         x="394.23428"
         y="412.66098"
         id="text4084"
         sodipodi:linespacing="125%"><tspan
           sodipodi:role="line"
           id="tspan4086"
           x="394.23428"
           y="412.66098">w</tspan></text>
      <text
         sodipodi:linespacing="125%"
         id="text4088"
         y="388.84372"
         x="422.15305"
         style="font-size:28px;font-style:normal;font-weight:normal;line-height:125%;letter-spacing:0px;word-spacing:0px;fill:#000000;fill-opacity:1;stroke:none;font-family:Sans"
         xml:space="preserve"><tspan
           y="388.84372"
           x="422.15305"
           id="tspan4090"
           sodipodi:role="line">o</tspan></text>
      <text
         xml:space="preserve"
         style="font-size:28px;font-style:normal;font-weight:normal;line-height:125%;letter-spacing:0px;word-spacing:0px;fill:#000000;fill-opacity:1;stroke:none;font-family:Sans"
         x="370.76221"
         y="429.45285"
         id="text4092"
         sodipodi:linespacing="125%"><tspan
           sodipodi:role="line"
           id="tspan4094"
           x="370.76221"
           y="429.45285">k</tspan></text>
    </g>
    <path
       style="fill:#00ffff;fill-opacity:1;stroke:none"
       d="m 466.62223,216.94328 c -0.46563,-2.45391 -2.01773,-8.554 -3.44911,-13.55575 -1.43138,-5.00175 -2.48418,-9.18058 -2.33957,-9.28628 0.35524,-0.25966 24.25336,-9.0257 25.07733,-9.19858 1.30647,-0.27412 9.93889,30.01687 8.86138,31.09439 -0.17374,0.17373 -5.58328,1.29349 -12.02121,2.48835 -6.43793,1.19486 -12.51012,2.34056 -13.49377,2.546 -1.69789,0.35462 -1.83131,0.14762 -2.63505,-4.08813 l 0,0 z m 9.75345,-4.13133 c 0,-3.31755 0.10017,-3.5247 1.3746,-2.84264 2.45172,1.31212 5.03506,0.83127 7.20799,-1.34165 1.7557,-1.75571 2.07731,-2.64137 2.07731,-5.72058 0,-2.00379 -0.46998,-4.55209 -1.0444,-5.6629 -1.04641,-2.02353 -4.88867,-3.96501 -6.21935,-3.1426 -0.3875,0.23949 -2.10965,0.40723 -3.827,0.37276 l -3.12245,-0.0627 0,10.9893 0,10.98929 1.77665,0 c 1.65986,0 1.77665,-0.23522 1.77665,-3.5783 z"
       id="path4206"
       inkscape:connector-curvature="0" />
    <path
       style="fill:#00ffff;fill-opacity:1;stroke:none"
       d="m 477.48197,206.28288 c -1.34534,-1.92073 -1.44426,-6.21461 -0.18292,-7.9396 1.41968,-1.94153 4.88109,-1.25849 6.05122,1.1941 2.4496,5.13432 -2.78351,11.14967 -5.8683,6.7455 z"
       id="path4208"
       inkscape:connector-curvature="0" />
    <path
       style="fill:#00ffff;fill-opacity:1;stroke:none"
       d="m 469.95662,245.08315 c -0.0127,-3.46891 -0.46477,-9.82487 -1.00457,-14.12437 -0.5398,-4.29949 -0.92915,-7.86901 -0.86521,-7.93226 0.0639,-0.0633 5.5528,-1.107 12.19747,-2.31944 6.64467,-1.21243 12.80076,-2.39721 13.68021,-2.63285 0.87944,-0.23564 1.60484,-0.15128 1.612,0.18745 0.007,0.33873 0.46533,3.81385 1.01815,7.72248 0.55282,3.90863 1.23186,11.02412 1.50897,15.81219 l 0.50385,8.70558 -12.09306,0 c -6.65119,0 -13.09243,0.19988 -14.31388,0.44417 l -2.22081,0.44416 -0.0231,-6.30711 z m 9.98284,-5.41878 c 0.0131,-5.54585 1.11859,-7.91662 3.83751,-8.2295 2.76571,-0.31827 3.23499,0.71683 3.24773,7.16351 0.0108,5.45444 0.0287,5.50761 1.85824,5.50761 l 1.84736,0 -0.24838,-6.37697 c -0.21238,-5.45292 -0.47766,-6.60615 -1.83075,-7.95857 -1.75829,-1.75744 -5.87823,-2.0639 -7.67701,-0.57105 -0.73137,0.60698 -1.04518,0.62793 -1.04518,0.0697 0,-0.43872 -0.6396,-0.79768 -1.42132,-0.79768 -1.33518,0 -1.42132,0.47377 -1.42132,7.81726 0,7.34349 0.0861,7.81726 1.42132,7.81726 1.26859,0 1.42244,-0.47726 1.4318,-4.44162 z"
       id="path4210"
       inkscape:connector-curvature="0" />
    <path
       style="fill:#00ffff;fill-opacity:1;stroke:none"
       d="m 480.73397,282.24583 -12.34222,-2.23519 0.45823,-4.27211 c 0.25203,-2.34967 0.65642,-8.37764 0.89865,-13.3955 0.27236,-5.64215 0.73944,-9.22452 1.22409,-9.38844 0.43102,-0.14578 6.82259,-0.35752 14.20348,-0.47053 l 13.41982,-0.20548 -0.52109,9.94925 c -0.2866,5.47208 -0.88896,12.66751 -1.33859,15.98985 -0.70743,5.22723 -1.00889,6.0556 -2.23883,6.15197 -0.78173,0.0613 -6.97532,-0.89446 -13.76354,-2.12382 z m 6.59882,-5.88084 c 0.61826,-0.23725 1.12411,-1.20789 1.12411,-2.15698 0,-1.48585 -0.19099,-1.6234 -1.3746,-0.98996 -2.3918,1.28006 -4.83129,0.84613 -6.39108,-1.13682 -1.77159,-2.25221 -1.8898,-5.03332 -0.30982,-7.28906 1.01836,-1.4539 1.59766,-1.61877 4.65551,-1.32495 3.22962,0.31032 3.47632,0.22319 3.27854,-1.158 -0.41287,-2.88316 -7.19302,-2.85768 -10.08861,0.0379 -3.63615,3.63615 -2.66377,11.37382 1.70214,13.54482 1.90085,0.94522 5.56351,1.17923 7.40381,0.47304 l 0,0 z"
       id="path4212"
       inkscape:connector-curvature="0" />
    <path
       style="fill:#00ffff;fill-opacity:1;stroke:none"
       d="m 476.37568,314.43662 c -5.27665,-1.92986 -10.89725,-3.99812 -12.49022,-4.59612 l -2.89632,-1.08729 2.30287,-8.01141 c 1.26657,-4.40628 2.7863,-10.34724 3.37719,-13.20212 0.59088,-2.85488 1.21605,-5.33242 1.38928,-5.50565 0.17322,-0.17322 6.35276,0.73998 13.73232,2.02933 l 13.41737,2.34427 -0.22386,2.1233 c -0.69933,6.63327 -7.05437,28.86399 -8.35575,29.22946 -0.36243,0.10178 -4.97623,-1.39391 -10.25288,-3.32377 z m 6.03818,-7.25954 c 3.36303,-2.90125 3.65145,-10.34704 0.52203,-13.47646 -1.42261,-1.4226 -4.3915,-1.82829 -7.09662,-0.96972 -1.49468,0.4744 -1.59557,0.30117 -1.59557,-2.73944 0,-2.98848 -0.14088,-3.24586 -1.77665,-3.24586 l -1.77665,0 0,10.68216 0,10.68216 2.46219,-0.16582 c 1.35421,-0.0912 2.6867,0.0587 2.96109,0.33307 1.04245,1.04245 4.52062,0.43512 6.30018,-1.10009 l 0,0 z"
       id="path4214"
       inkscape:connector-curvature="0" />
    <path
       style="fill:#00ffff;fill-opacity:1;stroke:none"
       d="m 475.34999,304.35397 c -2.02479,-2.89078 -1.22626,-7.76319 1.47391,-8.99347 1.51183,-0.68883 1.99734,-0.54867 3.57939,1.03339 1.53577,1.53576 1.76953,2.28357 1.45255,4.6468 -0.20777,1.54907 -0.76547,3.28365 -1.23933,3.85461 -1.27724,1.53898 -4.00587,1.25852 -5.26652,-0.54133 l 0,0 z"
       id="path4216"
       inkscape:connector-curvature="0" />
    <path
       style="fill:#00ffff;fill-opacity:1;stroke:none"
       d="m 461.80715,343.51771 c -5.47209,-3.16067 -10.66361,-6.19838 -11.53672,-6.75046 l -1.58747,-1.00379 4.1664,-8.34141 c 2.29152,-4.58778 4.8778,-10.31337 5.74729,-12.72352 l 1.58089,-4.38211 4.3681,1.63026 c 2.40246,0.89665 8.20567,3.0045 12.89603,4.68412 4.69036,1.67963 8.6391,3.13574 8.77499,3.23581 0.97472,0.71778 -12.39466,29.42385 -13.69602,29.40743 -0.42034,-0.005 -5.24141,-2.59565 -10.71349,-5.75633 z m 11.54822,-6.3525 2.30965,0.0818 0,-7.83952 0,-7.83953 -1.77665,0 c -1.74661,0 -1.77665,0.0958 -1.77665,5.6689 0,5.17233 -0.14686,5.76512 -1.67652,6.76739 -3.53101,2.31361 -5.43008,-0.43642 -5.43008,-7.86326 0,-4.09925 -0.14725,-4.57303 -1.42132,-4.57303 -1.31657,0 -1.42132,0.47378 -1.42132,6.42825 0,5.95818 0.13373,6.56197 1.82886,8.2571 1.55991,1.55991 2.21308,1.75542 4.44162,1.3295 1.43702,-0.27465 3.65211,-0.46256 4.92241,-0.41758 z"
       id="path4218"
       inkscape:connector-curvature="0" />
    <path
       style="fill:#00ffff;fill-opacity:1;stroke:none"
       d="m 442.4446,369.36229 -10.68962,-8.93056 3.36508,-4.33037 c 3.77014,-4.85162 8.74833,-12.1397 11.0006,-16.10491 l 1.49171,-2.62618 11.88307,6.84503 c 6.53569,3.76477 11.88815,7.19076 11.89435,7.61331 0.0156,1.06023 -10.98385,17.53916 -14.9851,22.45016 l -3.27047,4.01408 -10.68962,-8.93056 z m 10.4793,-11.90601 c 0,-10.54146 -0.0611,-11.01523 -1.42132,-11.01523 -1.36019,0 -1.42132,0.47377 -1.42132,11.01523 0,10.54145 0.0611,11.01523 1.42132,11.01523 1.36018,0 1.42132,-0.47378 1.42132,-11.01523 z"
       id="path4220"
       inkscape:connector-curvature="0" />
    <path
       style="fill:#00ffff;fill-opacity:1;stroke:none"
       d="m 428.37382,385.20432 c -2.30776,-2.30776 -2.30776,-5.5741 0,-7.88186 2.11462,-2.11462 2.8116,-2.16302 4.65159,-0.32303 1.92902,1.92902 1.92902,6.5989 0,8.52792 -1.83999,1.83999 -2.53697,1.79159 -4.65159,-0.32303 z"
       id="path4222"
       inkscape:connector-curvature="0" />
    <path
       style="fill:#00ffff;fill-opacity:1;stroke:none"
       d="m 419.79146,392.31283 -8.61466,-10.26824 9.8877,-9.99095 9.88771,-9.99096 10.27518,8.66261 c 5.65135,4.76443 10.27519,8.89328 10.27519,9.17522 0,1.49355 -21.01004,22.6842 -22.48829,22.68162 -0.33449,-5.9e-4 -4.48477,-4.62177 -9.22283,-10.2693 z m 14.55221,-3.53421 c 2.4069,-1.24466 3.65636,-3.83627 3.65636,-7.58396 0,-5.8804 -3.90109,-9.34399 -9.05222,-8.03702 -3.53808,0.8977 -5.43431,3.69586 -5.43431,8.01911 0,6.86576 5.19805,10.51435 10.83017,7.60187 l 0,0 z"
       id="path4224"
       inkscape:connector-curvature="0" />
    <path
       style="fill:#00ffff;fill-opacity:1;stroke:none"
       d=""
       id="path4228"
       inkscape:connector-curvature="0" />
    <path
       style="fill:#00ffff;fill-opacity:1;stroke:none"
       d="m 393.92416,411.62183 c -3.62317,-6.33927 -6.6967,-11.7283 -6.83006,-11.97562 -0.13337,-0.24732 2.37475,-2.1661 5.57358,-4.26396 3.19883,-2.09786 8.22103,-5.65655 11.16045,-7.90821 2.93942,-2.25166 5.58124,-4.01055 5.87072,-3.90863 0.55384,0.19498 17.64128,20.34355 17.64128,20.80163 0,0.44285 -15.71651,12.04094 -19.92136,14.70108 -7.5169,4.75546 -6.06188,5.55834 -13.49461,-7.44629 z m 10.30744,-4.41935 1.53183,-5.68528 1.40343,5.68528 c 1.2613,5.10949 1.58545,5.70683 3.20052,5.898 1.71124,0.20256 1.88797,-0.12621 3.69964,-6.88226 2.27809,-8.49543 2.3231,-9.32031 0.50862,-9.32031 -1.38933,0 -2.09727,1.6438 -3.30186,7.66678 -0.52047,2.60233 -1.33375,2.45074 -2.01613,-0.3758 -1.68756,-6.99018 -1.83578,-7.29098 -3.59265,-7.29098 -1.76392,0 -2.33966,1.21605 -3.6298,7.66678 -0.52047,2.60233 -1.33375,2.45074 -2.01613,-0.3758 -1.60556,-6.65053 -1.89234,-7.29098 -3.26471,-7.29098 -1.79056,0 -1.77069,0.36601 0.49385,9.09687 1.8083,6.97181 1.98322,7.31006 3.67511,7.1066 1.57563,-0.18947 1.9496,-0.85628 3.30828,-5.8989 z"
       id="path4230"
       inkscape:connector-curvature="0" />
    <path
       style="fill:#00ffff;fill-opacity:1;stroke:none"
       d="m 364.80379,425.85731 c -2.4507,-6.74239 -4.59129,-12.61728 -4.75686,-13.05532 -0.16771,-0.44369 1.84158,-1.65249 4.53668,-2.72929 2.66075,-1.06308 8.3855,-3.74385 12.72167,-5.95727 l 7.88395,-4.02439 6.68458,11.58824 c 3.67653,6.37353 6.78008,11.85781 6.8968,12.18728 0.346,0.97671 -26.86394,14.24964 -29.21224,14.24964 -0.16432,0 -2.30388,-5.5165 -4.75458,-12.25889 z m 11.36882,0.38205 0,-3.34892 3.40004,3.34892 c 2.50642,2.46873 3.95195,3.34892 5.49989,3.34892 2.09824,0 2.09675,-0.003 -1.94447,-4.04432 l -4.04431,-4.04431 4.05204,-3.74091 c 4.04088,-3.73061 4.04617,-3.74091 1.92006,-3.74265 -1.47188,-0.001 -3.12213,0.86838 -5.32995,2.80856 l -3.19797,2.81029 -0.20641,-5.68323 c -0.20002,-5.50748 -0.26046,-5.68324 -1.95431,-5.68324 l -1.74791,0 0,10.6599 0,10.65991 1.77665,0 c 1.64375,0 1.77665,-0.25052 1.77665,-3.34892 l 0,0 z"
       id="path4232"
       inkscape:connector-curvature="0" />
    <path
       style="fill:#00ffff;fill-opacity:1;stroke:none"
       d="m 334.69078,441.1365 c -0.61702,-3.42005 -1.71925,-9.60091 -2.44939,-13.73525 l -1.32753,-7.51698 6.00406,-1.2479 c 3.30224,-0.68634 9.3972,-2.3247 13.54436,-3.6408 4.14715,-1.3161 7.59155,-2.32876 7.65421,-2.25036 0.32728,0.40953 8.76417,24.02647 8.95196,25.05875 0.16452,0.9044 -0.77681,1.56437 -3.68773,2.58548 -4.40611,1.5456 -25.10013,6.96534 -26.59555,6.96534 -0.66336,0 -1.32917,-1.97683 -2.09439,-6.21828 z m 10.85372,-6.39594 c 2.41523,-2.92554 2.16266,-2.99475 5.38466,1.47555 0.60183,0.835 1.61077,1.21518 2.82899,1.06599 l 1.89354,-0.23189 -2.86631,-3.83191 c -1.57647,-2.10755 -2.66194,-4.18624 -2.41217,-4.61929 0.24978,-0.43306 1.35987,-1.95269 2.46687,-3.37696 2.43006,-3.12653 2.53325,-4.16328 0.41374,-4.15684 -1.02719,0.003 -2.20355,0.89259 -3.28958,2.48731 -0.92982,1.36535 -1.92794,2.48246 -2.21804,2.48246 -0.29009,0 -1.28821,-1.11711 -2.21804,-2.48246 -1.08603,-1.59472 -2.26239,-2.48419 -3.28957,-2.48731 -2.13436,-0.006 -2.03019,0.55979 0.84763,4.6075 l 2.44661,3.44122 -2.25374,3.13827 c -1.23955,1.72605 -2.50043,3.29074 -2.80194,3.47709 -1.14727,0.70905 -0.47822,1.67625 1.15951,1.67625 1.10846,0 2.47977,-0.93518 3.90784,-2.66498 z"
       id="path4234"
       inkscape:connector-curvature="0" />
    <path
       style="fill:#00ffff;fill-opacity:1;stroke:none"
       d="m 301.5533,436.77977 0,-14.2981 5.15228,-0.0222 c 2.83376,-0.0122 8.97805,-0.47704 13.65398,-1.033 4.67593,-0.55596 8.61687,-0.89566 8.75763,-0.75489 0.29162,0.29162 5.07722,26.96766 4.87447,27.1714 -0.36093,0.3627 -18.09977,2.33285 -24.79877,2.75426 l -7.63959,0.48058 0,-14.29809 z m 12.0438,3.60736 c 0.40042,-1.48704 0.93375,-3.73227 1.18518,-4.98941 0.75011,-3.7506 1.3826,-3.18906 2.69943,2.39663 1.17468,4.98274 1.36305,5.29647 3.18014,5.29647 1.85164,0 1.99871,-0.2788 3.55726,-6.74377 0.89417,-3.70907 1.80125,-7.41483 2.01574,-8.23502 0.32413,-1.23946 0.1107,-1.45071 -1.26403,-1.25116 -1.40069,0.20332 -1.87157,1.0438 -3.0746,5.48779 l -1.42059,5.24769 -1.48888,-5.24769 c -1.32015,-4.65298 -1.68229,-5.24769 -3.19547,-5.24769 -1.51906,0 -1.86305,0.57665 -3.13041,5.24769 l -1.42382,5.24769 -1.48608,-5.24769 c -1.22506,-4.32599 -1.76344,-5.28758 -3.06522,-5.47479 -0.86854,-0.1249 -1.57915,-0.0735 -1.57915,0.11433 0,0.38421 3.47143,13.83625 3.92619,15.21429 0.16124,0.48858 1.09036,0.88833 2.06472,0.88833 1.4503,0 1.90359,-0.4903 2.49959,-2.70369 z"
       id="path4236"
       inkscape:connector-curvature="0" />
    <path
       style="fill:#00ffff;fill-opacity:1;stroke:none"
       d="m 283.7868,450.12034 c -6.99921,-0.61403 -16.46106,-1.93389 -16.88209,-2.35492 -0.13269,-0.13269 0.83343,-6.27556 2.14694,-13.65083 2.34494,-13.16671 2.41956,-13.40759 4.12004,-13.30039 0.95252,0.06 5.06532,0.45979 9.13955,0.88832 4.07423,0.42854 9.59073,0.77915 12.25888,0.77915 l 4.8512,0 0,14.21321 0,14.2132 -4.44163,-0.0977 c -2.44289,-0.0538 -7.4797,-0.36426 -11.19289,-0.69001 z m 7.81726,-8.41538 c 0,-1.18542 -0.5809,-1.41668 -4.01659,-1.59898 l -4.01658,-0.21313 4.01658,-4.69948 c 2.20912,-2.58472 4.01659,-5.38294 4.01659,-6.21828 0,-1.43216 -0.34455,-1.51879 -6.04061,-1.51879 -5.51531,0 -6.04062,0.12051 -6.04062,1.38585 0,1.17723 0.57947,1.41794 3.84938,1.59899 l 3.84937,0.21313 -4.2047,4.93128 c -5.93295,6.95816 -5.77322,7.50527 2.19124,7.50527 5.8676,0 6.39594,-0.11448 6.39594,-1.38586 z"
       id="path4238"
       inkscape:connector-curvature="0" />
    <path
       style="fill:#00ffff;fill-opacity:1;stroke:none"
       d="m 255.36039,445.66391 c -8.59576,-2.00098 -22.03046,-6.20281 -22.03046,-6.89024 0,-0.88637 8.65257,-24.42775 9.19479,-25.01665 0.27957,-0.30363 4.32131,0.5447 8.98164,1.88518 4.66033,1.34048 10.552,2.83499 13.09261,3.32114 2.54061,0.48615 4.73428,0.97869 4.87481,1.09454 0.14054,0.11585 -0.79578,6.30505 -2.08072,13.75377 -2.69475,15.62145 -1.38464,14.33097 -12.03267,11.85226 z m -10.6599,-12.48204 c 0,-5.02775 0.1727,-5.76594 1.57945,-6.75127 1.96715,-1.37785 2.3124,-1.37687 3.69974,0.0105 0.82743,0.82743 1.11675,2.57653 1.11675,6.75128 0,5.53638 0.0309,5.63452 1.77665,5.63452 1.74598,0 1.77665,-0.0974 1.77665,-5.64499 0,-5.02775 0.1727,-5.76594 1.57945,-6.75127 1.96715,-1.37785 2.3124,-1.37687 3.69974,0.0105 0.82743,0.82743 1.11675,2.57653 1.11675,6.75128 0,5.53638 0.031,5.63452 1.77665,5.63452 1.72002,0 1.77653,-0.15292 1.77269,-4.79696 -0.005,-6.46371 -0.97975,-9.69937 -3.22963,-10.72449 -2.5425,-1.15844 -4.17412,-1.02787 -6.04045,0.4834 -1.57034,1.27158 -1.65167,1.26969 -2.99099,-0.0696 -1.06586,-1.06586 -1.96282,-1.27938 -3.97211,-0.94556 -1.42744,0.23715 -3.63469,0.41836 -4.90499,0.40269 l -2.30965,-0.0285 0,7.83952 0,7.83953 1.77665,0 c 1.74598,0 1.77665,-0.0974 1.77665,-5.64499 l 0,0 z"
       id="path4240"
       inkscape:connector-curvature="0" />
    <path
       style="fill:#00ffff;fill-opacity:1;stroke:none"
       d="m 224.09135,435.61457 c -8.20681,-3.36338 -22.03046,-10.43075 -22.03046,-11.2631 0,-0.63699 11.57322,-21.13605 12.97501,-22.98198 0.48564,-0.63952 2.1308,-0.0711 6.45263,2.22936 3.19043,1.69825 8.75891,4.31797 12.37439,5.8216 3.61549,1.50363 6.57381,3.05879 6.57406,3.45592 0.001,1.7018 -8.94961,25.23375 -9.59436,25.22427 -0.39086,-0.006 -3.42894,-1.12448 -6.75127,-2.48607 z m -4.97462,-14.06306 c 0,-5.47424 0.69272,-7.13334 3.30075,-7.90545 2.77593,-0.82182 3.80585,1.19834 3.80585,7.46506 0,5.61536 0.006,5.63452 1.87522,5.63452 l 1.87522,0 -0.3795,-6.21828 c -0.20872,-3.42005 -0.59585,-6.74864 -0.86029,-7.39687 -0.77335,-1.89572 -4.46914,-3.10713 -6.79776,-2.22817 -1.08863,0.41091 -2.80796,0.58871 -3.82073,0.39511 l -1.8414,-0.35201 0,7.90011 c 0,7.42633 0.0852,7.90011 1.42132,7.90011 1.29167,0 1.42132,-0.47378 1.42132,-5.19413 z"
       id="path4242"
       inkscape:connector-curvature="0" />
    <path
       style="fill:#00ffff;fill-opacity:1;stroke:none"
       d="m 191.8391,418.53842 c -8.78881,-5.83575 -18.20462,-12.97685 -18.20462,-13.80668 0,-0.92194 17.03509,-21.0159 17.62345,-20.78795 0.27411,0.1062 3.30302,2.28747 6.73092,4.84727 3.42789,2.5598 8.42791,6.00772 11.11115,7.66204 l 4.87861,3.00787 -6.8348,11.86568 c -3.75915,6.52613 -7.16353,11.86569 -7.5653,11.86569 -0.40177,0 -3.88451,-2.09426 -7.73941,-4.65392 z m 7.20148,-8.11169 2.30965,0.0182 0,-4.55272 c 0,-8.84974 -1.52223,-11.32014 -6.97532,-11.32014 -3.93127,0 -5.81657,0.78767 -5.81657,2.43015 0,1.24793 0.29392,1.36259 2.30965,0.90099 3.02544,-0.69282 4.6832,-0.56313 5.91973,0.4631 1.71981,1.42731 1.12683,2.08485 -1.88016,2.08485 -2.91701,0 -5.55617,0.97856 -6.516,2.41604 -0.28716,0.43006 -0.52701,1.96304 -0.53299,3.40661 -0.0145,3.49978 2.07728,5.06987 6.02972,4.52587 1.56346,-0.21518 3.88198,-0.38303 5.15229,-0.373 z"
       id="path4244"
       inkscape:connector-curvature="0" />
    <path
       style="fill:#00ffff;fill-opacity:1;stroke:none"
       d="m 191.35155,407.14291 c -1.49214,-1.79791 0.0722,-3.45835 3.49745,-3.71225 3.27029,-0.24243 3.72731,0.56618 1.84164,3.25837 -1.28886,1.8401 -3.99753,2.07037 -5.33909,0.45388 z"
       id="path4246"
       inkscape:connector-curvature="0" />
    <path
       style="fill:#00ffff;fill-opacity:1;stroke:none"
       d="m 159.70481,392.30826 c -6.01889,-6.04208 -10.94343,-11.25768 -10.94343,-11.59024 0,-0.54792 20.20834,-17.93179 20.84528,-17.93179 0.53903,0 19.66159,19.54122 19.48671,19.91334 -0.64239,1.36691 -17.24038,20.59428 -17.77798,20.59428 -0.36694,0 -5.5917,-4.94351 -11.61058,-10.98559 z m 9.83712,-0.2073 c 0.97414,-1.099 8.35651,-18.42516 8.35651,-19.61243 0,-0.25505 -0.72559,-0.46372 -1.61242,-0.46372 -1.35472,0 -1.94416,0.86888 -3.68807,5.43651 l -2.07565,5.4365 -0.92736,-2.06087 c -0.51005,-1.13348 -1.55732,-3.57991 -2.32728,-5.43651 -1.13969,-2.74812 -1.72879,-3.37563 -3.16899,-3.37563 l -1.76905,0 3.11693,7.54241 c 3.3746,8.16591 3.4272,10.60392 0.23855,11.05797 -0.8965,0.12766 -1.73668,0.79176 -1.86704,1.47577 -0.32905,1.72645 4.19357,1.72645 5.72387,0 z"
       id="path4248"
       inkscape:connector-curvature="0" />
    <path
       style="fill:#00ffff;fill-opacity:1;stroke:none"
       d="m 127.44158,187.82206 c -6.44924,-2.33521 -12.10979,-4.36179 -12.57899,-4.50351 -0.60232,-0.18193 -0.32864,-1.57388 0.931,-4.73513 2.99913,-7.52675 11.6708,-24.73126 12.46541,-24.73126 0.54691,0 22.64086,12.14362 23.87711,13.12371 0.0972,0.0771 -1.54262,3.47176 -3.64408,7.54375 -2.10146,4.07199 -4.73938,9.7182 -5.86204,12.54714 -1.12266,2.82894 -2.361,5.11149 -2.75186,5.07234 -0.39087,-0.0392 -5.98731,-1.98183 -12.43655,-4.31704 z m 7.1066,-16.2034 c 0,-10.18612 -0.0632,-10.6599 -1.42132,-10.6599 -1.35815,0 -1.42132,0.47378 -1.42132,10.6599 0,10.18613 0.0632,10.65991 1.42132,10.65991 1.35815,0 1.42132,-0.47378 1.42132,-10.65991 z"
       id="path4254"
       inkscape:connector-curvature="0" />
    <path
       style="fill:#00ffff;fill-opacity:1;stroke:none"
       d="m 141.12178,158.65946 c -6.35152,-3.59662 -11.54822,-6.84685 -11.54822,-7.22274 0,-1.92257 17.40567,-26.26257 18.49952,-25.86965 0.32769,0.11771 5.24529,4.02891 10.92801,8.69154 6.7007,5.49789 10.11463,8.74502 9.71316,9.23859 -2.8048,3.44816 -10.61986,14.3392 -12.65734,17.63923 -1.38761,2.24746 -2.71732,4.0809 -2.95492,4.07432 -0.23759,-0.007 -5.62868,-2.95467 -11.98021,-6.55129 z m 10.08661,-0.70146 c 0.86115,-1.22946 1.10629,-3.59156 1.10629,-10.6599 0,-8.60669 -0.0742,-9.08046 -1.42132,-9.08046 -1.33258,0 -1.42193,0.47701 -1.43103,7.6396 -0.0114,9.00846 -0.38361,10.83756 -2.20516,10.83756 -0.86466,0 -1.33843,0.50312 -1.33843,1.42132 0,2.07154 3.80766,1.95772 5.28965,-0.15812 l 0,0 z m 1.10629,-24.00432 c 0,-1.65821 -0.31585,-2.13198 -1.42132,-2.13198 -1.10547,0 -1.42132,0.47377 -1.42132,2.13198 0,1.65821 0.31585,2.13198 1.42132,2.13198 1.10547,0 1.42132,-0.47377 1.42132,-2.13198 z"
       id="path4256"
       inkscape:connector-curvature="0" />
    <path
       style="fill:#00ffff;fill-opacity:1;stroke:none"
       d="m 159.64828,132.66035 c -5.54267,-4.56532 -10.09977,-8.56435 -10.12691,-8.88673 -0.13707,-1.62859 20.87244,-22.5103 22.64807,-22.5103 0.49692,0 11.80167,12.9054 16.57858,18.92596 1.24825,1.57323 1.19804,1.63951 -8.50635,11.22679 -5.36911,5.30431 -9.93162,9.62186 -10.13892,9.59453 -0.20729,-0.0273 -4.91181,-3.78494 -10.45447,-8.35025 z m 18.25016,-5.10261 c 0,-1.2634 -0.47377,-1.42132 -4.26396,-1.42132 -2.34518,0 -4.26396,-0.19705 -4.26396,-0.43788 0,-0.24084 1.91878,-2.60217 4.26396,-5.2474 2.35304,-2.6541 4.26396,-5.48349 4.26396,-6.31339 0,-1.41999 -0.35674,-1.50387 -6.39594,-1.50387 -5.92217,0 -6.39594,0.10528 -6.39594,1.42132 0,1.26519 0.47377,1.42132 4.31298,1.42132 l 4.31297,0 -4.6683,5.35265 c -2.56757,2.94397 -4.66831,5.98204 -4.66831,6.75127 0,1.2929 0.51031,1.39862 6.75127,1.39862 6.2775,0 6.75127,-0.0997 6.75127,-1.42132 z"
       id="path4258"
       inkscape:connector-curvature="0" />
    <path
       style="fill:#00ffff;fill-opacity:1;stroke:none"
       d="m 183.45778,111.07021 c -4.42566,-5.15952 -8.42383,-9.89836 -8.88482,-10.53077 -0.70846,-0.971888 -0.21645,-1.637238 3.17921,-4.299275 5.57036,-4.36691 12.55565,-9.246941 18.04805,-12.60866 l 4.63974,-2.839839 6.67341,11.442782 c 3.67037,6.293529 6.75679,11.779092 6.85871,12.190142 0.10191,0.41104 -2.13454,2.17492 -4.9699,3.91972 -2.83535,1.74479 -7.82054,5.18261 -11.07819,7.63959 -3.25765,2.45698 -6.03473,4.46724 -6.17128,4.46724 -0.13655,0 -3.86927,-4.22142 -8.29493,-9.38093 z m 16.29346,-1.32297 2.30965,0.0431 0,-11.014801 c 0,-10.541031 -0.0611,-11.014805 -1.42132,-11.014805 -1.23579,0 -1.42133,0.473774 -1.42133,3.629333 0,3.177778 -0.15473,3.565632 -1.24365,3.117344 -4.22765,-1.740444 -7.65055,-0.637868 -9.14833,2.946836 -2.78884,6.674623 0.81894,13.714053 6.48335,12.650213 1.17259,-0.22022 3.17133,-0.38099 4.44163,-0.35726 l 0,0 z"
       id="path4260"
       inkscape:connector-curvature="0" />
    <path
       style="fill:#00ffff;fill-opacity:1;stroke:none"
       d="m 192.8223,106.23794 c -1.92902,-1.92902 -1.92902,-6.598903 0,-8.527925 1.80978,-1.809773 2.9945,-1.795375 4.67066,0.05676 2.59637,2.868951 0.96802,9.892481 -2.29349,9.892481 -0.52571,0 -1.59544,-0.6396 -2.37717,-1.42132 z"
       id="path4262"
       inkscape:connector-curvature="0" />
    <path
       style="fill:#00ffff;fill-opacity:1;stroke:none"
       d="m 208.94134,91.84707 c -6.20933,-10.557577 -6.68908,-11.631942 -5.59256,-12.524109 2.55817,-2.081415 25.97518,-12.880037 27.93406,-12.881631 0.49348,-4.02e-4 10.11187,25.585154 9.74377,25.919076 -0.12911,0.117122 -2.47333,1.094787 -5.20937,2.172588 -2.73604,1.077802 -8.08683,3.512739 -11.89065,5.410971 -3.80381,1.898235 -7.2034,3.451335 -7.55465,3.451335 -0.35125,0 -3.69502,-5.196706 -7.4306,-11.54823 z m 15.15001,-2.309646 0,-6.75127 2.13198,0 c 1.6582,0 2.13198,-0.315849 2.13198,-1.421321 0,-1.113006 -0.47378,-1.42132 -2.18409,-1.42132 -3.13766,0 -2.61429,-2.40018 0.59092,-2.710001 1.72827,-0.167058 2.30383,-0.566526 2.30383,-1.598985 0,-1.127733 -0.50422,-1.376294 -2.79188,-1.376294 -3.20156,0 -5.02538,1.436949 -5.02538,3.959392 0,1.252115 -0.39017,1.725888 -1.42132,1.725888 -0.94755,0 -1.42132,0.473774 -1.42132,1.42132 0,0.947547 0.47377,1.421321 1.42132,1.421321 1.32158,0 1.42132,0.473773 1.42132,6.75127 0,6.277498 0.0997,6.751271 1.42132,6.751271 1.32158,0 1.42132,-0.473773 1.42132,-6.751271 z"
       id="path4264"
       inkscape:connector-curvature="0" />
    <path
       style="fill:#00ffff;fill-opacity:1;stroke:none"
       d="m 238.1239,78.699858 c -2.58221,-6.937819 -4.42576,-12.889672 -4.09679,-13.22634 1.63122,-1.669375 29.66461,-8.790481 30.59614,-7.7721 0.49775,0.544169 4.95034,23.865355 4.95034,25.928271 0,0.691369 -2.26109,1.510454 -7.28426,2.63874 -4.00635,0.899891 -9.68275,2.399216 -12.61422,3.331833 -2.93147,0.932617 -5.67338,1.699751 -6.09312,1.70474 -0.41975,0.005 -2.87589,-5.667325 -5.45809,-12.605144 z m 21.50045,-4.796955 0,-11.015232 -1.77665,0 c -0.97716,0 -1.77665,0.383757 -1.77665,0.852792 0,0.663283 -0.18951,0.663283 -0.85279,0 -1.20191,-1.201913 -5.64137,-1.06025 -7.49662,0.239217 -3.38455,2.370634 -3.65725,10.417721 -0.46133,13.613638 1.81981,1.819813 6.46559,2.279106 7.95795,0.786743 0.66328,-0.663282 0.85279,-0.03158 0.85279,2.84264 0,3.468022 0.10933,3.695433 1.77665,3.695433 l 1.77665,0 0,-11.015231 z"
       id="path4266"
       inkscape:connector-curvature="0" />
    <path
       style="fill:#00ffff;fill-opacity:1;stroke:none"
       d="m 249.36008,74.810767 c -2.35904,-3.367999 -0.5961,-9.080455 2.80234,-9.080455 2.11008,0 3.90863,2.452567 3.90863,5.32995 0,4.672091 -4.35912,7.108238 -6.71097,3.750505 z"
       id="path4268"
       inkscape:connector-curvature="0" />
    <path
       style="fill:#00ffff;fill-opacity:1;stroke:none"
       d="m 271.40336,83.38135 c -0.7118,-2.215862 -4.80406,-26.284196 -4.5177,-26.570557 0.50577,-0.505762 18.79881,-2.364406 25.96205,-2.637845 l 6.57361,-0.250931 0,14.076739 0,14.076738 -4.0863,0.01833 c -4.28966,0.01924 -16.42155,1.063107 -20.96291,1.803702 -1.90067,0.309959 -2.75085,0.162138 -2.96875,-0.516181 z m 17.18039,-6.017736 c 1.09933,-0.29461 1.59899,-0.965593 1.59899,-2.14728 0,-1.479079 -0.1917,-1.616177 -1.3746,-0.983105 -3.95036,2.114164 -7.86399,-0.294273 -7.86399,-4.839473 0,-4.280763 2.65251,-6.027806 7.33721,-4.832573 1.79562,0.458127 1.98295,0.343477 1.77665,-1.087375 -0.45474,-3.154135 -8.05074,-3.013379 -10.96164,0.203122 -1.00947,1.115456 -1.35019,2.563821 -1.35019,5.739587 0,3.899334 0.19032,4.417689 2.32086,6.32133 2.3298,2.081673 4.94948,2.581748 8.51671,1.625767 z"
       id="path4270"
       inkscape:connector-curvature="0" />
    <path
       style="fill:#00ffff;fill-opacity:1;stroke:none"
       d="m 321.80711,83.491138 c -1.95432,-0.305606 -7.47081,-0.795877 -12.25889,-1.089491 l -8.70558,-0.533842 0,-13.972894 0,-13.972894 6.5736,0.250753 c 5.87321,0.224036 25.51186,2.195702 25.92455,2.602753 0.0897,0.08849 -0.87411,6.216929 -2.14184,13.618755 -2.61055,15.242192 -1.91101,14.266676 -9.39184,13.09686 z m -3.15125,-6.415269 c 0.94755,-0.507111 1.3746,-0.507111 1.3746,0 0,0.404615 0.63959,0.735664 1.42132,0.735664 1.31657,0 1.42132,-0.473774 1.42132,-6.428244 0,-5.877501 -0.14945,-6.577691 -1.74435,-8.172591 -2.72328,-2.723286 -10.33687,-2.406436 -10.33687,0.430183 0,1.149655 0.42266,1.261747 3.41941,0.906827 2.74929,-0.325613 3.67975,-0.144963 4.74786,0.921808 1.29716,1.295538 1.24474,1.337146 -2.22613,1.766655 -4.33455,0.536386 -6.40586,1.574318 -7.02317,3.519296 -0.59787,1.883729 0.0611,4.512267 1.48919,5.940382 1.26796,1.267959 5.40385,1.478735 7.45682,0.38002 l 0,0 z"
       id="path4272"
       inkscape:connector-curvature="0" />
    <path
       style="fill:#00ffff;fill-opacity:1;stroke:none"
       d="m 313.14379,73.806308 c -0.76792,-2.001145 0.79991,-3.442653 4.00056,-3.678253 2.85436,-0.210109 2.98372,-0.136732 2.50562,1.42132 -0.27727,0.903577 -0.82394,2.042614 -1.21482,2.531193 -1.04532,1.306572 -4.7586,1.114107 -5.29136,-0.27426 z"
       id="path4274"
       inkscape:connector-curvature="0" />
    <path
       style="fill:#00ffff;fill-opacity:1;stroke:none"
       d="m 351.08268,89.813171 c -3.44159,-1.085719 -9.43779,-2.684123 -13.32488,-3.552008 -3.88709,-0.867884 -7.06744,-1.875783 -7.06744,-2.239777 0,-1.384123 4.35436,-26.435617 4.64555,-26.726815 1.07855,-1.078542 30.88746,7.490277 30.88746,8.878856 0,0.727136 -8.46856,25.316428 -8.80111,25.554879 -0.0452,0.03239 -2.89799,-0.829415 -6.33958,-1.915135 l 0,0 z m -1.91516,-12.001638 c 0,-5.590526 0.0296,-5.685281 1.77665,-5.685281 1.10547,0 1.77665,-0.402707 1.77665,-1.06599 0,-0.671382 -0.67697,-1.06599 -1.82876,-1.06599 -2.58058,0 -2.056,-2.406637 0.59119,-2.712179 2.93099,-0.3383 2.51569,-2.262442 -0.48831,-2.262442 -2.70713,0 -4.67006,1.514872 -4.67006,3.604063 0,0.753807 -0.47969,1.370558 -1.06599,1.370558 -0.58629,0 -1.06599,0.479696 -1.06599,1.06599 0,0.586295 0.4797,1.06599 1.06599,1.06599 0.85872,0 1.06599,1.105472 1.06599,5.685281 0,5.211507 0.11845,5.685281 1.42132,5.685281 1.30288,0 1.42132,-0.473774 1.42132,-5.685281 z"
       id="path4276"
       inkscape:connector-curvature="0" />
    <path
       style="fill:#00ffff;fill-opacity:1;stroke:none"
       d="m 379.41808,101.61823 c -2.31905,-1.31736 -7.7556,-3.897025 -12.08122,-5.732595 -4.32562,-1.83557 -7.95248,-3.409655 -8.05969,-3.497965 -0.28913,-0.23817 8.5164,-24.774815 9.15608,-25.513446 0.70605,-0.815259 6.2321,1.380014 18.93225,7.520998 5.5698,2.6932 10.12691,5.267734 10.12691,5.721187 0,0.977823 -12.98585,24.001231 -13.50254,23.939481 -0.19543,-0.0234 -2.25274,-1.1203 -4.57179,-2.43766 z m 3.32813,-8.197052 2.66498,0.05921 -0.0401,-4.814123 c -0.0772,-9.265866 -2.6404,-12.386364 -9.1414,-11.128976 -2.67042,0.516497 -3.29819,0.934726 -3.49524,2.328587 -0.19811,1.401303 -0.0113,1.608629 1.06599,1.183195 3.07928,-1.216022 5.69003,-1.239485 6.86779,-0.06172 1.90439,1.904386 1.40889,2.509462 -2.05502,2.509462 -3.88475,0 -5.84127,0.927363 -6.69523,3.17344 -1.53678,4.042042 1.77156,7.94127 6.03129,7.108506 1.17259,-0.229237 3.33122,-0.390149 4.79695,-0.357582 l 0,0 z"
       id="path4278"
       inkscape:connector-curvature="0" />
    <path
       style="fill:#00ffff;fill-opacity:1;stroke:none"
       d=""
       id="path4280"
       inkscape:connector-curvature="0" />
    <path
       style="fill:#00ffff;fill-opacity:1;stroke:none"
       d=""
       id="path4282"
       inkscape:connector-curvature="0" />
    <path
       style="fill:#00ffff;fill-opacity:1;stroke:none"
       d=""
       id="path4284"
       inkscape:connector-curvature="0" />
    <path
       style="fill:#00ffff;fill-opacity:1;stroke:none"
       d="m 375.60408,90.461283 c -0.94991,-0.949904 -1.14353,-3.155304 -0.3198,-3.642581 0.29315,-0.173412 1.89213,-0.540192 3.5533,-0.815067 2.73319,-0.452263 3.02031,-0.361353 3.02031,0.95633 0,1.697789 -2.59637,4.35411 -4.25583,4.35411 -0.62986,0 -1.52895,-0.383757 -1.99798,-0.852792 z"
       id="path4286"
       inkscape:connector-curvature="0" />
    <path
       style="fill:#00ffff;fill-opacity:1;stroke:none"
       d="m 402.1117,116.06161 c -3.51777,-2.69165 -8.55457,-6.1997 -11.1929,-7.79566 -2.63832,-1.59596 -4.79695,-3.08946 -4.79695,-3.31889 0,-1.14765 13.25757,-23.575156 13.93792,-23.578426 1.89175,-0.0091 25.87807,16.979392 25.84667,18.306089 -0.009,0.378357 -16.55516,20.664407 -17.29679,21.206277 -0.0561,0.041 -2.98018,-2.12773 -6.49795,-4.81939 z m 8.17259,-9.82367 c 3.13722,-3.13722 1.10465,-6.846882 -4.58534,-8.368721 -3.42887,-0.917085 -3.89455,-1.567219 -2.15602,-3.010066 0.70916,-0.588556 2.16257,-0.743968 4.26396,-0.455941 2.79316,0.382846 3.18806,0.272868 3.18806,-0.887867 0,-1.472078 -1.83388,-2.176583 -5.70482,-2.191566 -3.56636,-0.01381 -5.66574,1.66835 -5.66574,4.53974 0,2.791149 1.39093,4.131095 5.50761,5.305721 3.21987,0.91873 3.91826,2.40614 1.68976,3.5988 -0.87156,0.46644 -2.15699,0.47507 -3.72627,0.025 -3.23768,-0.92855 -3.4711,-0.88714 -3.4711,0.61579 0,1.98364 0.60378,2.25043 5.09306,2.25043 3.19797,0 4.47039,-0.32488 5.56684,-1.42132 z"
       id="path4288"
       inkscape:connector-curvature="0" />
    <path
       style="fill:#00ffff;fill-opacity:1;stroke:none"
       d="m 420.01971,131.64984 -9.80773,-9.83331 8.33738,-10.09894 c 4.58556,-5.55442 8.56224,-10.36569 8.83706,-10.69172 0.5275,-0.62579 17.74804,15.68466 21.31564,20.18912 l 2.09084,2.6399 -8.64644,7.32656 c -4.75554,4.02962 -9.47276,7.99597 -10.48272,8.81413 l -1.8363,1.48757 -9.80773,-9.83331 z m 11.44225,-0.68093 c 0.66328,-0.66329 0.85279,-0.66329 0.85279,0 0,0.46903 0.7995,0.85279 1.77665,0.85279 l 1.77665,0 0,-11.01523 0,-11.01523 -1.77665,0 c -1.66731,0 -1.77665,0.22741 -1.77665,3.69543 0,2.87422 -0.18951,3.50592 -0.85279,2.84264 -0.90852,-0.90852 -4.66884,-1.14369 -6.5773,-0.41134 -4.04903,1.55375 -4.22745,13.8175 -0.22445,15.42809 1.74213,0.70094 5.95739,0.46721 6.80175,-0.37715 z"
       id="path4290"
       inkscape:connector-curvature="0" />
    <path
       style="fill:#00ffff;fill-opacity:1;stroke:none"
       d="m 425.82816,127.80384 c -1.25962,-1.51775 -1.25962,-6.79171 0,-8.30947 2.38147,-2.86948 6.48659,-0.2401 6.48659,4.15474 0,4.39484 -4.10512,7.02422 -6.48659,4.15473 l 0,0 z"
       id="path4292"
       inkscape:connector-curvature="0" />
    <path
       style="fill:#00ffff;fill-opacity:1;stroke:none"
       d="m 442.3919,158.86335 c -2.47027,-3.81227 -6.08656,-8.90285 -8.03621,-11.31239 l -3.54482,-4.38099 2.32085,-1.94317 c 1.27647,-1.06874 5.95365,-5.06119 10.39373,-8.87211 4.44008,-3.81091 8.29118,-6.91421 8.55799,-6.89622 0.73059,0.0493 7.89296,9.43658 12.71725,16.6678 5.72306,8.5784 6.06597,9.2768 4.98645,10.15594 -0.64145,0.52238 -19.80814,11.84569 -22.54852,13.32123 -0.19544,0.10523 -2.37646,-2.92781 -4.84672,-6.74009 z m 5.55738,-7.6957 c 0,-5.40546 1.22667,-7.97539 3.80679,-7.97539 2.68758,0 3.29981,1.3449 3.29981,7.24873 0,5.4955 0.0159,5.54315 1.84736,5.54315 l 1.84735,0 -0.24837,-6.37697 c -0.21238,-5.45292 -0.47767,-6.60615 -1.83075,-7.95858 -1.75829,-1.75743 -5.87824,-2.06389 -7.67701,-0.57104 -0.89667,0.74417 -1.04518,0.35016 -1.04518,-2.77289 0,-3.16655 -0.18498,-3.64032 -1.42133,-3.64032 -1.35815,0 -1.42132,0.47377 -1.42132,10.6599 0,10.18613 0.0632,10.6599 1.42132,10.6599 1.28152,0 1.42133,-0.47377 1.42133,-4.81649 z"
       id="path4294"
       inkscape:connector-curvature="0" />
    <path
       style="fill:#00ffff;fill-opacity:1;stroke:none"
       d="m 457.9168,188.36891 c -0.90856,-2.37253 -3.51903,-8.05861 -5.80105,-12.63572 l -4.14913,-8.32204 10.47356,-6.18243 c 5.76046,-3.40034 11.14493,-6.61622 11.96548,-7.1464 1.42817,-0.92278 1.67611,-0.60669 5.80298,7.39786 3.67953,7.1369 9.40562,19.95923 9.40562,21.06183 0,0.35878 -6.70806,3.02482 -18.88572,7.50593 l -7.15983,2.63466 -1.65191,-4.31369 z m 13.09709,-2.97849 c 2.40567,-0.92314 3.22981,-4.15624 3.22981,-12.67047 0,-7.73411 -0.082,-8.20789 -1.42132,-8.20789 -0.78173,0 -1.42132,0.32717 -1.42132,0.72705 0,0.39987 -0.79808,0.20412 -1.77352,-0.43501 -2.68133,-1.75688 -6.45911,-0.8104 -8.20696,2.05617 -2.0956,3.43688 -1.86935,8.34373 0.5154,11.17785 1.75813,2.08941 2.17033,2.23909 5.32995,1.93549 2.41549,-0.2321 3.42447,-0.0713 3.42447,0.54561 0,1.84316 -2.10188,2.67155 -5.69791,2.24565 -3.08216,-0.36503 -3.54067,-0.25495 -3.54067,0.85006 0,0.69816 0.21319,1.48259 0.47377,1.74316 0.59775,0.59775 7.55039,0.62248 9.0883,0.0323 l 0,0 z"
       id="path4296"
       inkscape:connector-curvature="0" />
    <path
       style="fill:#00ffff;fill-opacity:1;stroke:none"
       d="m 464.70055,176.18719 c -0.67724,-0.67724 -1.11675,-2.34892 -1.11675,-4.24757 0,-2.55535 0.32656,-3.34481 1.77665,-4.29494 1.62785,-1.06661 1.92111,-1.06945 3.50158,-0.0339 1.94549,1.27474 2.49871,3.38206 1.69199,6.44522 -0.86487,3.284 -3.67684,4.30781 -5.85347,2.13118 l 0,0 z"
       id="path4298"
       inkscape:connector-curvature="0" />
    <path
       style="fill:#ff0000;fill-opacity:1;stroke:none"
       d="m 117.6413,218.51155 c -6.36732,-1.1121 -11.84129,-2.12429 -12.16439,-2.24931 -0.82433,-0.31898 2.33778,-13.95516 5.47596,-23.61435 l 2.63083,-8.09762 12.76338,4.58015 c 7.01986,2.51908 12.87953,4.69629 13.02148,4.83824 0.14195,0.14196 -0.59322,2.92636 -1.63371,6.18756 -1.04049,3.2612 -2.6151,9.12743 -3.49912,13.03606 -1.47047,6.50159 -1.75247,7.11659 -3.31241,7.22393 -0.9378,0.0645 -6.91471,-0.79256 -13.28202,-1.90466 z"
       id="path4338"
       inkscape:connector-curvature="0" />
    <path
       style="fill:#ff0000;fill-opacity:1;stroke:none"
       d="m 101.85781,245.41843 c 0,-6.15488 1.96828,-25.28693 2.73939,-26.62739 0.32808,-0.57032 3.89674,-0.21752 12.5398,1.23969 6.64468,1.12028 12.74241,2.19 13.55052,2.37716 1.43281,0.33183 1.44755,0.49921 0.59384,6.74067 -0.4815,3.52021 -1.10388,9.92471 -1.38306,14.23221 l -0.5076,7.83182 -13.76644,0 -13.76645,0 0,-5.79416 z"
       id="path4340"
       inkscape:connector-curvature="0" />
    <path
       style="fill:#ff0000;fill-opacity:1;stroke:none"
       d="m 112.99532,318.19231 c -1.55505,-2.6151 -7.28623,-24.03791 -7.74272,-28.9418 l -0.19682,-2.11438 13.40422,-2.36634 c 7.37233,-1.30149 13.51213,-2.25844 13.64402,-2.12655 0.13189,0.13189 0.90707,3.31961 1.72262,7.08384 0.81555,3.76422 2.3939,9.75005 3.50745,13.30184 1.11354,3.55179 1.96414,6.4578 1.89021,6.4578 -0.0739,0 -5.81929,2.07868 -12.76746,4.61929 -13.9727,5.10914 -13.02446,4.8213 -13.46152,4.0863 z"
       id="path4342"
       inkscape:connector-curvature="0" />
    <path
       style="fill:#ff0000;fill-opacity:1;stroke:none"
       d="m 103.35168,278.75067 c -0.49173,-3.61548 -1.07647,-10.97081 -1.29942,-16.34518 l -0.40536,-9.77158 13.82082,0 13.82081,0 0.92298,11.1929 c 0.50764,6.15609 1.07777,12.47561 1.26695,14.04338 l 0.34397,2.85048 -13.38332,2.31945 c -7.36083,1.2757 -13.56559,2.31151 -13.78835,2.3018 -0.22276,-0.01 -0.80735,-2.97576 -1.29908,-6.59125 z"
       id="path4344"
       inkscape:connector-curvature="0" />
    <path
       style="fill:#ff0000;fill-opacity:1;stroke:none"
       d="m 126.92542,349.13836 c -2.20603,-2.73035 -13.6252,-27.96055 -12.91498,-28.53515 0.15616,-0.12635 3.64179,-1.44346 7.74586,-2.92691 4.10406,-1.48345 9.89897,-3.58987 12.87758,-4.68094 l 5.41566,-1.98376 1.97745,5.10051 c 1.08759,2.80528 3.68658,8.53145 5.77552,12.72484 l 3.79808,7.62434 -1.59727,0.9952 c -3.49394,2.17694 -20.40892,11.8638 -21.34059,12.22132 -0.54639,0.20967 -1.32818,-0.0331 -1.73731,-0.53945 z"
       id="path4346"
       inkscape:connector-curvature="0" />
    <path
       style="fill:#ff0000;fill-opacity:1;stroke:none"
       d="m 141.82937,371.8913 c -5.21733,-6.95247 -12.9689,-18.6613 -12.96303,-19.58082 0.002,-0.29671 5.32506,-3.60229 11.82926,-7.34572 l 11.82582,-6.80624 5.56594,8.22756 c 3.06127,4.52516 6.67414,9.68056 8.02862,11.45646 l 2.46268,3.22889 -9.89219,8.33532 c -5.4407,4.58443 -10.3419,8.50789 -10.89156,8.71882 -0.65439,0.25111 -2.71374,-1.90101 -5.96554,-6.23427 l 0,0 z"
       id="path4348"
       inkscape:connector-curvature="0" />
    <text
       xml:space="preserve"
       style="font-size:40px;font-style:normal;font-weight:normal;line-height:125%;letter-spacing:0px;word-spacing:0px;fill:#000000;fill-opacity:1;stroke:none;font-family:Sans"
       x="112.99495"
       y="209.51932"
       id="text4304"
       sodipodi:linespacing="125%"><tspan
         sodipodi:role="line"
         id="tspan4306"
         x="112.99495"
         y="209.51932"
         style="font-size:28px">q</tspan></text>
    <text
       sodipodi:linespacing="125%"
       id="text4308"
       y="243.51932"
       x="106.99495"
       style="font-size:40px;font-style:normal;font-weight:normal;line-height:125%;letter-spacing:0px;word-spacing:0px;fill:#000000;fill-opacity:1;stroke:none;font-family:Sans"
       xml:space="preserve"><tspan
         style="font-size:28px"
         y="243.51932"
         x="106.99495"
         id="tspan4310"
         sodipodi:role="line">a</tspan></text>
    <text
       sodipodi:linespacing="125%"
       id="text4316"
       y="275.51932"
       x="108.99495"
       style="font-size:40px;font-style:normal;font-weight:normal;line-height:125%;letter-spacing:0px;word-spacing:0px;fill:#000000;fill-opacity:1;stroke:none;font-family:Sans"
       xml:space="preserve"><tspan
         style="font-size:28px"
         y="275.51932"
         x="108.99495"
         id="tspan4318"
         sodipodi:role="line">r</tspan></text>
    <text
       xml:space="preserve"
       style="font-size:40px;font-style:normal;font-weight:normal;line-height:125%;letter-spacing:0px;word-spacing:0px;fill:#000000;fill-opacity:1;stroke:none;font-family:Sans"
       x="112.99495"
       y="309.51932"
       id="text4320"
       sodipodi:linespacing="125%"><tspan
         sodipodi:role="line"
         id="tspan4322"
         x="112.99495"
         y="309.51932"
         style="font-size:28px">b</tspan></text>
    <text
       sodipodi:linespacing="125%"
       id="text4324"
       y="337.51932"
       x="124.99495"
       style="font-size:40px;font-style:normal;font-weight:normal;line-height:125%;letter-spacing:0px;word-spacing:0px;fill:#000000;fill-opacity:1;stroke:none;font-family:Sans"
       xml:space="preserve"><tspan
         style="font-size:28px"
         y="337.51932"
         x="124.99495"
         id="tspan4326"
         sodipodi:role="line">n</tspan></text>
    <text
       xml:space="preserve"
       style="font-size:40px;font-style:normal;font-weight:normal;line-height:125%;letter-spacing:0px;word-spacing:0px;fill:#000000;fill-opacity:1;stroke:none;font-family:Sans"
       x="140.99495"
       y="363.51932"
       id="text4328"
       sodipodi:linespacing="125%"><tspan
         sodipodi:role="line"
         id="tspan4330"
         x="140.99495"
         y="363.51932"
         style="font-size:28px">p</tspan></text>
  </g>
</svg>
